<svg id="icons" enable-background="new 0 0 64 64" height="512" viewBox="0 0 64 64" width="512" xmlns="http://www.w3.org/2000/svg"><path d="m49 53v4c0 3.3-2.7 6-6 6h-22c-3.3 0-6-2.7-6-6v-4c0 3.3 2.7 6 6 6h11 11c3.3 0 6-2.7 6-6z" fill="#545c66"/><path d="m34 55c0-1.1-.9-2-2-2v-2h17v2c0 3.3-2.7 6-6 6h-11v-2c1.1 0 2-.89 2-2z" fill="#656d78"/><path d="m32 53c1.1 0 2 .9 2 2 0 1.11-.9 2-2 2s-2-.89-2-2c0-1.1.9-2 2-2z" fill="#aab2bd"/><path d="m30 55c0 1.11.9 2 2 2v2h-11c-3.3 0-6-2.7-6-6v-2h17v2c-1.1 0-2 .9-2 2z" fill="#656d78"/><path d="m32 19c5.52 0 10 4.48 10 10 0 5.53-4.48 10-10 10s-10-4.47-10-10c0-5.52 4.48-10 10-10z" fill="#5d9cec"/><path d="m32 19c-5.52 0-10 4.48-10 10 0 5.53 4.48 10 10 10s10-4.47 10-10c0-5.52-4.48-10-10-10zm-9-3h18c2.2 0 4 1.8 4 4v18c0 2.2-1.8 4-4 4h-18c-2.2 0-4-1.8-4-4v-18c0-2.2 1.8-4 4-4z" fill="#e6e9ed"/><path d="m49 7.01v43.99h-17-17v-43.99zm-4 30.99v-18c0-2.2-1.8-4-4-4h-18c-2.2 0-4 1.8-4 4v18c0 2.2 1.8 4 4 4h18c2.2 0 4-1.8 4-4z" fill="#5d9cec"/><path d="m20 1h24v.01c2.76 0 5 2.23 5 5v1h-34v-1.01c0-2.76 2.24-5 5-5z" fill="#656d78"/><path d="m43 60h-22c-3.859 0-7-3.141-7-7 0-.553.447-1 1-1s1 .447 1 1c0 2.757 2.243 5 5 5h22c2.757 0 5-2.243 5-5 0-.553.447-1 1-1s1 .447 1 1c0 3.859-3.141 7-7 7z"/><path d="m29.03 5c-.553 0-1.005-.447-1.005-1s.442-1 .994-1h.011c.552 0 1 .447 1 1s-.448 1-1 1z"/><path d="m35 5h-3c-.553 0-1-.447-1-1s.447-1 1-1h3c.553 0 1 .447 1 1s-.447 1-1 1z"/><path d="m49 7.002c-.553 0-1-.447-1-1 0-2.206-1.794-4-4-4-.553 0-1-.447-1-1s.447-1 1-1c3.309 0 6 2.691 6 6 0 .553-.447 1-1 1z"/><path d="m15 7c-.553 0-1-.447-1-1 0-3.309 2.691-6 6-6 .553 0 1 .447 1 1s-.447 1-1 1c-2.206 0-4 1.794-4 4 0 .553-.447 1-1 1z"/><path d="m44 2h-24c-.553 0-1-.447-1-1s.447-1 1-1h24c.553 0 1 .447 1 1s-.447 1-1 1z"/><path d="m49 8.002h-34c-.553 0-1-.447-1-1s.447-1 1-1h34c.553 0 1 .447 1 1s-.447 1-1 1z"/><path d="m43 64h-22c-3.859 0-7-3.141-7-7v-51c0-.553.447-1 1-1s1 .447 1 1v51c0 2.757 2.243 5 5 5h22c2.757 0 5-2.243 5-5v-50.998c0-.553.447-1 1-1s1 .447 1 1v50.998c0 3.859-3.141 7-7 7z"/><path d="m49 52h-34c-.553 0-1-.447-1-1s.447-1 1-1h34c.553 0 1 .447 1 1s-.447 1-1 1z"/><path d="m32 58c-1.654 0-3-1.346-3-3s1.346-3 3-3 3 1.346 3 3-1.346 3-3 3zm0-4c-.552 0-1 .448-1 1s.448 1 1 1 1-.448 1-1-.448-1-1-1z"/><path d="m41 42.998h-18c-2.757 0-5-2.243-5-5v-18c0-2.757 2.243-5 5-5h18c2.757 0 5 2.243 5 5v18c0 2.757-2.243 5-5 5zm-18-26c-1.654 0-3 1.346-3 3v18c0 1.654 1.346 3 3 3h18c1.654 0 3-1.346 3-3v-18c0-1.654-1.346-3-3-3z"/><path d="m26.002 30.003c-.256 0-.512-.098-.707-.293-.391-.391-.391-1.023 0-1.414l1.999-2c.391-.391 1.023-.391 1.414 0s.391 1.023 0 1.414l-1.999 2c-.195.195-.451.293-.707.293z"/><path d="m28.001 32.002c-.256 0-.512-.098-.707-.293l-1.999-1.999c-.391-.391-.391-1.023 0-1.414s1.023-.391 1.414 0l1.999 1.999c.391.391.391 1.023 0 1.414-.195.195-.451.293-.707.293z"/><path d="m38.005 30.003c-.256 0-.512-.098-.707-.293l-1.999-2c-.391-.391-.391-1.023 0-1.414s1.023-.391 1.414 0l1.999 2c.391.391.391 1.023 0 1.414-.195.195-.451.293-.707.293z"/><path d="m36.006 32.002c-.256 0-.512-.098-.707-.293-.391-.391-.391-1.023 0-1.414l1.999-1.999c.391-.391 1.023-.391 1.414 0s.391 1.023 0 1.414l-1.999 1.999c-.195.195-.451.293-.707.293z"/><path d="m31.003 33.003c-.104 0-.211-.017-.316-.052-.523-.174-.807-.74-.632-1.265l1.999-6c.174-.523.737-.807 1.265-.632.523.174.807.74.632 1.265l-1.998 6c-.14.419-.531.684-.95.684z"/><path d="m32 40c-6.065 0-11-4.935-11-11s4.935-11 11-11 11 4.935 11 11-4.935 11-11 11zm0-20c-4.963 0-9 4.037-9 9s4.037 9 9 9 9-4.037 9-9-4.037-9-9-9z"/></svg>