<svg id="Layer_1" height="512" viewBox="0 0 512 512" width="512" xmlns="http://www.w3.org/2000/svg" data-name="Layer 1"><path d="m429.67 255.23a113.038 113.038 0 1 1 -47.97-10.67 112.607 112.607 0 0 1 47.97 10.67z" fill="#00efd1"/><path d="m374.3 69.65c48.51 1.62 86.95 42.43 86.18 90.96a87.535 87.535 0 0 1 -30.81 65.86v28.76a113.038 113.038 0 0 0 -112.01 9.24 42.875 42.875 0 0 0 -37.54-22.38l-81.56-.3a42.9 42.9 0 0 0 -42.69 37.56l-6.35 50.74a42.888 42.888 0 0 1 -42.55 37.55h-16.3a42.883 42.883 0 0 1 -42.88-42.88v-98.29a90.8 90.8 0 0 1 -30.29-67.35 89.66 89.66 0 0 1 151.97-64.33q.285.27.54.54h138.43a89.2 89.2 0 0 1 65.86-25.68zm45.17 104.29a16.366 16.366 0 1 0 -23.14-.15 16.372 16.372 0 0 0 23.14.15zm-40.06-40.21a16.362 16.362 0 1 0 -23.14 0 16.362 16.362 0 0 0 23.14 0zm-.21 79.95a16.366 16.366 0 1 0 -23.14-.16 16.366 16.366 0 0 0 23.14.16zm-39.79-39.95a16.362 16.362 0 1 0 -23.14 0 16.362 16.362 0 0 0 23.14 0zm-177.53-14.86a51.64 51.64 0 1 0 -51.64 51.64 51.64 51.64 0 0 0 51.64-51.64z" fill="#00acea"/><path d="m419.63 150.8a16.366 16.366 0 1 1 -23.15-.16 16.372 16.372 0 0 1 23.15.16z" fill="#fedb41"/><path d="m379.41 110.59a16.362 16.362 0 1 1 -23.14 0 16.362 16.362 0 0 1 23.14 0z" fill="#fedb41"/><path d="m379.36 190.53a16.366 16.366 0 1 1 -23.15-.15 16.366 16.366 0 0 1 23.15.15z" fill="#fedb41"/><circle cx="327.84" cy="162.16" fill="#fedb41" r="16.362"/><path d="m282.89 74.72 16.99 20.61h-121.77l16.99-20.61a37.776 37.776 0 0 1 29.14-13.74h29.52a37.756 37.756 0 0 1 29.13 13.74z" fill="#fedb41"/><circle cx="110.24" cy="158.87" fill="#fedb41" r="51.64"/><g fill="#083863"><path d="m436 251.5v-22.312a94.831 94.831 0 0 0 30.644-68.483c.822-51.793-40.522-95.5-92.061-97.217a96.545 96.545 0 0 0 -68.559 25.512h-3.314l-15.189-18.251a43.442 43.442 0 0 0 -33.761-15.749h-29.52a43.48 43.48 0 0 0 -33.77 15.749l-15.19 18.251h-2.842a97.709 97.709 0 0 0 -65.278-25.565 95.679 95.679 0 0 0 -95.555 95.6c0 26.292 11.4 51.724 30.4 70.055v95.67c-.005 26.952 21.712 49.24 48.665 49.24h16.3a49.124 49.124 0 0 0 48.5-42.985l6.349-50.723a36.919 36.919 0 0 1 36.599-32.292h.12l81.564.195a36.825 36.825 0 0 1 29.472 14.805 118.6 118.6 0 0 0 -46.664 94.217c0 65.407 53.289 118.607 118.79 118.607s118.965-53.224 118.965-118.624c0-44.481-25.665-85.553-64.665-105.7zm-236.272-173.116a31.518 31.518 0 0 1 24.512-11.384h29.52a31.476 31.476 0 0 1 24.5 11.382l8.898 10.618h-96.326zm80.414 157.816-81.562-.2h-.16a48.854 48.854 0 0 0 -48.5 42.71l-6.351 50.866a37.057 37.057 0 0 1 -36.599 32.424h-16.3c-20.336 0-36.67-16.9-36.67-37.24v-98.29a6.1 6.1 0 0 0 -2.092-4.46 84.918 84.918 0 0 1 -28.356-62.89 83.633 83.633 0 0 1 141.8-59.977c.107.1.2.037.3.139a5.837 5.837 0 0 0 4.358 1.718h138.43a5.855 5.855 0 0 0 4.212-1.562 82.691 82.691 0 0 1 61.448-23.874c45.041 1.5 81.1 39.617 80.381 84.908-.387 24.183-10.413 46-28.532 61.406a5.894 5.894 0 0 0 -1.949 4.592v19.711a121.461 121.461 0 0 0 -42.135-7.621 118.489 118.489 0 0 0 -62.314 17.64 48.972 48.972 0 0 0 -39.409-20zm101.558 227.61c-58.884 0-106.79-48.034-106.79-106.824a107.13 107.13 0 0 1 46.157-87.986 108.552 108.552 0 0 1 60.633-18.644 105.978 105.978 0 0 1 45.42 10.2 107.172 107.172 0 0 1 61.38 96.58c0 58.794-47.91 106.674-106.8 106.674z"/><path d="m359.365 314.31a6 6 0 0 0 -8.425-1l-49.38 38.85a6 6 0 0 0 0 9.43l49.38 38.851a6 6 0 0 0 7.42-9.431l-43.386-34.14 43.386-34.135a6 6 0 0 0 1.005-8.425z"/><path d="m404.044 314.31a6 6 0 0 0 1 8.425l43.379 34.135-43.379 34.135a6 6 0 1 0 7.421 9.431l49.37-38.851a6 6 0 0 0 0-9.43l-49.37-38.85a6 6 0 0 0 -8.421 1.005z"/><path d="m391.317 293.067a6 6 0 0 0 -6.83 5.036l-17.529 115.87a6 6 0 1 0 11.865 1.795l17.53-115.868a6 6 0 0 0 -5.036-6.833z"/><path d="m110.24 101.23a57.64 57.64 0 1 0 57.64 57.64 57.706 57.706 0 0 0 -57.64-57.64zm0 103.28a45.64 45.64 0 1 1 45.64-45.64 45.692 45.692 0 0 1 -45.64 45.64z"/><path d="m383.629 186.313a22.357 22.357 0 1 0 -.216 31.64 22.4 22.4 0 0 0 .216-31.64zm-8.641 23.1a10.358 10.358 0 1 1 .1-14.666 10.377 10.377 0 0 1 -.1 14.661z"/><path d="m392.061 178.006a22.366 22.366 0 0 0 31.839-31.419 22.367 22.367 0 1 0 -31.838 31.423zm8.628-23.09a10.366 10.366 0 1 1 -.086 14.661 10.351 10.351 0 0 1 .086-14.661z"/><path d="m343.653 177.973a22.389 22.389 0 1 0 -15.813 6.539 22.389 22.389 0 0 0 15.813-6.539zm-23.14-23.14a10.362 10.362 0 1 1 0 14.654 10.326 10.326 0 0 1 0-14.654z"/><path d="m367.84 144.512a22.352 22.352 0 1 0 -15.813-6.539 22.3 22.3 0 0 0 15.813 6.539zm-7.324-29.683a10.345 10.345 0 0 1 14.648 0 10.362 10.362 0 1 1 -14.651 0z"/><path d="m273 196h-68a6 6 0 0 0 0 12h68a6 6 0 0 0 0-12z"/></g></svg>