<svg height="496pt" viewBox="0 0 496 496" width="496pt" xmlns="http://www.w3.org/2000/svg"><path d="m200 72v-64h176v64h-72l-48 40v-40zm0 0" fill="#e6e9ed"/><path d="m304 408v80h-32l-16-32h-128l-16 32h-32v-112h224zm0 0" fill="#e6e9ed"/><path d="m304 344v32h-224v-32zm0 0" fill="#e6e9ed"/><path d="m328 312v32h-264v-32zm0 0" fill="#aab2bd"/><path d="m256 456 16 32h-160l16-32zm0 0" fill="#838f9b"/><path d="m392 408 8 80h-32l-8-80zm0 0" fill="#838f9b"/><path d="m440 264v96c0 26.480469-21.519531 48-48 48h-88v-32h72c17.679688 0 32-14.320312 32-32v-80zm0 0" fill="#cf9e76"/><path d="m387.039062 252.960938c3.199219-3.199219 4.960938-7.519532 4.960938-12 0-4.640626-1.921875-8.960938-4.960938-12-2.480468-2.402344-5.597656-4.160157-11.039062-4.882813v-.078125h11.039062c3.28125 0 6.480469.71875 9.359376 2.238281 7.121093 3.523438 11.601562 10.800781 11.601562 18.722657v99.039062c0 17.679688-14.320312 32-32 32h-72v-32h24v-32h-3.28125c2.082031 0 4.160156-.878906 5.601562-2.320312zm0 0" fill="#fcd770"/><path d="m240 312h-144v-37.921875c0-10.71875 7.121094-20.078125 17.441406-23.039063l38.558594-11.039062s8 16 24 16 24-16 24-16l38.558594 11.039062c10.320312 2.960938 17.441406 12.320313 17.441406 23.039063v5.921875h-16c-4.398438 0-8.398438 1.761719-11.28125 4.71875-2.957031 2.882812-4.71875 6.882812-4.71875 11.28125 0 8.800781 7.199219 16 16 16zm0 0" fill="#69d6f4"/><g fill="#f0d0b4"><path d="m376 224.078125c5.441406.722656 8.558594 2.480469 11.039062 4.882813 3.039063 3.039062 4.960938 7.359374 4.960938 12 0 4.480468-1.761719 8.800781-4.960938 12l-56.71875 56.71875c-1.441406 1.441406-3.519531 2.320312-5.601562 2.320312h-84.71875c-8.800781 0-16-7.199219-16-16 0-4.398438 1.761719-8.398438 4.71875-11.28125 2.882812-2.957031 6.882812-4.71875 11.28125-4.71875h72l51.039062-51.039062c3.199219-3.199219 7.519532-4.960938 12-4.960938.320313 0 .640626 0 .960938.078125zm0 0"/><path d="m408 168v16c0 22.078125-17.921875 40-40 40s-40-17.921875-40-40v-16c0-22.078125 17.921875-40 40-40 11.039062 0 21.039062 4.480469 28.320312 11.679688 7.199219 7.28125 11.679688 17.28125 11.679688 28.320312zm0 0"/><path d="m152 216c6.640625 5.039062 14.960938 8 24 8s17.359375-2.960938 24-8v24s-8 16-24 16-24-16-24-16zm0 0"/><path d="m216 168v16c0 13.039062-6.320312 24.71875-16 32-6.640625 5.039062-14.960938 8-24 8s-17.359375-2.960938-24-8c-9.679688-7.28125-16-18.960938-16-32v-16c0-22.078125 17.921875-40 40-40 11.039062 0 21.039062 4.480469 28.320312 11.679688 7.199219 7.28125 11.679688 17.28125 11.679688 28.320312zm0 0"/></g><path d="m248 129.078125 58.894531-49.078125h77.105469v-80h-192v80h56zm-40-65.078125v-48h160v48h-66.894531l-37.105469 30.921875v-30.921875zm0 0"/><path d="m224 32h16v16h-16zm0 0"/><path d="m256 32h64v16h-64zm0 0"/><path d="m336 32h16v16h-16zm0 0"/><path d="m407.238281 480-6.46875-64.761719c26.710938-4.222656 47.230469-27.351562 47.230469-55.238281v-104h-32v-11.054688c0-10.875-5.976562-20.640624-15.585938-25.648437 9.554688-8.777344 15.585938-21.328125 15.585938-35.296875v-16c0-26.472656-21.527344-48-48-48s-48 21.527344-48 48v16c0 20.710938 13.207031 38.34375 31.625 45.0625l-42.9375 42.9375h-44.863281c-.894531-13.335938-10.054688-24.960938-23.03125-28.671875l-32.792969-9.359375v-14.289062c9.792969-8.792969 16-21.503907 16-35.679688v-16c0-26.472656-21.527344-48-48-48s-48 21.527344-48 48v16c0 14.167969 6.207031 26.878906 16 35.679688v14.296874l-32.792969 9.359376c-13.664062 3.894531-23.207031 16.550781-23.207031 30.769531v29.894531h-32v48h16v128h-72v16h496v-16zm-71.238281-128v-36.6875l56.6875-56.6875c4.097656-4.097656 6.535156-9.601562 7.082031-15.34375.070313.558594.230469 1.085938.230469 1.664062v99.054688c0 13.230469-10.769531 24-24 24h-64v-16zm-24 64h40.761719l6.398437 64h-47.160156zm56.839844 0h15.921875l6.398437 64h-15.921875zm47.160156-72v-72h16v88c0 22.054688-17.945312 40-40 40h-80v-16h64c22.054688 0 40-17.945312 40-40zm-80-160v-16c0-17.648438 14.351562-32 32-32s32 14.351562 32 32v16c0 17.648438-14.351562 32-32 32s-32-14.351562-32-32zm-20.6875 104 53.375-53.375c1.671875-1.671875 3.984375-2.625 6.34375-2.625 4.945312 0 8.96875 4.023438 8.96875 8.96875 0 2.359375-.953125 4.671875-2.625 6.34375l-56.6875 56.6875h-84.6875c-4.414062 0-8-3.585938-8-8s3.585938-8 8-8zm-171.3125-120c0-17.648438 14.351562-32 32-32s32 14.351562 32 32v16c0 17.648438-14.351562 32-32 32s-32-14.351562-32-32zm32 64c5.617188 0 10.984375-1.023438 16-2.800781v8.59375c-1.984375 3.0625-7.496094 10.207031-16 10.207031s-14.015625-7.144531-16-10.207031v-8.59375c5.015625 1.777343 10.382812 2.800781 16 2.800781zm-72 42.105469c0-7.113281 4.777344-13.433594 11.601562-15.386719l32.957032-9.414062c4.640625 6.046874 13.671875 14.695312 27.441406 14.695312s22.800781-8.648438 27.441406-14.703125l32.957032 9.414063c6.128906 1.753906 10.402343 7.082031 11.257812 13.28125h-7.65625c-13.230469 0-24 10.769531-24 24 0 2.816406.574219 5.488281 1.472656 8h-113.472656zm-32 45.894531h248v16h-248zm16 64h24v-16h-24v-16h208v16h-168v16h168v96h-19.054688l-16-32h-137.890624l-16 32h-19.054688zm171.054688 96h-134.109376l8-16h118.109376zm0 0"/></svg>