<?xml version="1.0" encoding="iso-8859-1"?>
<!-- Generator: Adobe Illustrator 19.0.0, SVG Export Plug-In . SVG Version: 6.00 Build 0)  -->
<svg version="1.1" id="Capa_1" xmlns="http://www.w3.org/2000/svg" xmlns:xlink="http://www.w3.org/1999/xlink" x="0px" y="0px"
	 viewBox="0 0 512 512" style="enable-background:new 0 0 512 512;" xml:space="preserve">
<g>
	<g transform="translate(1 1)">
		<path style="fill:#283593;" d="M58.733,75.8h392.533c9.426,0,17.067,7.641,17.067,17.067v307.2H41.667v-307.2
			C41.667,83.441,49.308,75.8,58.733,75.8z"/>
		<path style="fill:#3F51B5;" d="M58.733,75.8h366.933c9.426,0,17.067,7.641,17.067,17.067v307.2H41.667v-307.2
			C41.667,83.441,49.308,75.8,58.733,75.8z"/>
		<path style="fill:#607D8B;" d="M7.533,383h494.933v25.6c0,14.138-11.462,25.6-25.6,25.6H33.133c-14.138,0-25.6-11.462-25.6-25.6
			V383z"/>
		<path style="fill:#CFD8DC;" d="M7.533,383h469.333v25.6c0,14.138-11.462,25.6-25.6,25.6H33.133c-14.138,0-25.6-11.462-25.6-25.6
			V383z"/>
		<path style="fill:#607D8B;" d="M323.267,383v8.533c-0.028,9.414-7.652,17.039-17.067,17.067H203.8
			c-9.414-0.028-17.039-7.652-17.067-17.067V383"/>
		<circle style="fill:#00BCD4;" cx="255" cy="229.4" r="102.4"/>
	</g>
	<g>
		<path d="M503.467,375.467h-25.6v-281.6c-0.015-14.132-11.468-25.585-25.6-25.6H59.733c-14.132,0.015-25.585,11.468-25.6,25.6
			v281.6h-25.6c-2.263-0.001-4.434,0.898-6.035,2.499S-0.001,381.737,0,384v25.6c0.02,18.843,15.29,34.113,34.133,34.133h443.733
			c18.843-0.02,34.113-15.29,34.133-34.133V384c0.001-2.263-0.898-4.434-2.499-6.035
			C507.901,376.365,505.73,375.466,503.467,375.467z M51.2,93.867c0.005-4.711,3.822-8.529,8.533-8.533h392.533
			c4.711,0.005,8.529,3.822,8.533,8.533v281.6H51.2V93.867z M315.733,392.533c-0.005,4.711-3.822,8.529-8.533,8.533H204.8
			c-4.711-0.005-8.529-3.822-8.533-8.533H315.733z M494.933,409.6c-0.011,9.421-7.645,17.056-17.067,17.067H34.133
			c-9.421-0.011-17.056-7.645-17.067-17.067v-17.067H179.2c0.015,14.132,11.468,25.585,25.6,25.6h102.4
			c14.132-0.015,25.585-11.468,25.6-25.6h162.133V409.6z"/>
		<path d="M256,341.333c39.243-0.049,75.537-20.838,95.434-54.662c0.507-0.615,0.924-1.299,1.237-2.033
			c19.017-33.658,19.017-74.817,0-108.476c-0.313-0.733-0.729-1.418-1.237-2.033c-19.862-33.862-56.179-54.663-95.436-54.662
			s-75.574,20.803-95.434,54.665c-0.507,0.614-0.922,1.297-1.234,2.029c-19.018,33.659-19.018,74.819,0,108.478
			c0.312,0.732,0.728,1.416,1.234,2.029C180.462,320.495,216.756,341.284,256,341.333z M172.496,187.733h20.32
			c-2.739,11.189-4.355,22.623-4.826,34.133h-25.424C163.651,209.956,167.022,198.367,172.496,187.733z M339.504,273.067h-20.319
			c2.738-11.189,4.354-22.624,4.825-34.133h25.424C348.35,250.844,344.978,262.433,339.504,273.067z M247.467,290.133v32.659
			c-14.214-6.274-25.26-18.066-30.594-32.659H247.467z M210.645,273.067c-3.151-11.129-5.03-22.58-5.601-34.133h42.423v34.133
			H210.645z M264.533,322.793v-32.659h30.594C289.794,304.726,278.747,316.518,264.533,322.793z M264.533,273.067v-34.133h42.423
			c-0.571,11.553-2.45,23.004-5.601,34.133H264.533z M349.434,221.867h-25.424c-0.471-11.51-2.087-22.944-4.825-34.133h20.319
			C344.978,198.367,348.349,209.956,349.434,221.867z M306.956,221.867h-42.423v-34.133h36.822
			C304.506,198.863,306.385,210.314,306.956,221.867z M264.533,170.667v-32.659c14.214,6.274,25.26,18.066,30.594,32.659H264.533z
			 M247.467,138.007v32.659h-30.594C222.206,156.074,233.253,144.282,247.467,138.007z M247.467,187.733v34.133h-42.423
			c0.571-11.553,2.45-23.004,5.601-34.133H247.467z M187.989,238.933c0.471,11.51,2.088,22.944,4.826,34.133h-20.319
			c-5.474-10.634-8.845-22.223-9.93-34.133H187.989z M183.65,290.133h14.59c2.869,7.529,6.529,14.732,10.919,21.489
			C199.449,306.028,190.811,298.752,183.65,290.133z M302.841,311.622c4.39-6.756,8.05-13.959,10.919-21.489h14.59
			C321.189,298.752,312.551,306.028,302.841,311.622L302.841,311.622z M328.35,170.667h-14.59
			c-2.869-7.529-6.529-14.732-10.919-21.489C312.551,154.772,321.189,162.048,328.35,170.667z M209.158,149.178
			c-4.39,6.756-8.05,13.959-10.919,21.489h-14.59C190.811,162.048,199.449,154.772,209.158,149.178z"/>
		<path d="M133.55,164.187c-3.578-3.059-8.957-2.645-12.025,0.925l-51.2,59.733c-2.742,3.195-2.742,7.913,0,11.108l51.2,59.733
			c3.067,3.576,8.453,3.988,12.029,0.921c3.576-3.067,3.988-8.453,0.921-12.029L88.042,230.4l46.433-54.179
			c1.476-1.717,2.208-3.951,2.034-6.209C136.336,167.755,135.271,165.659,133.55,164.187z"/>
		<path d="M378.45,296.613c1.717,1.473,3.949,2.203,6.204,2.029s4.349-1.236,5.821-2.954l51.2-59.733
			c2.742-3.195,2.742-7.913,0-11.108l-51.2-59.733c-1.984-2.313-5.052-3.392-8.048-2.83c-2.996,0.562-5.464,2.679-6.475,5.554
			c-1.011,2.875-0.412,6.071,1.573,8.385l46.433,54.179l-46.433,54.179c-1.476,1.717-2.208,3.951-2.034,6.209
			C375.664,293.045,376.729,295.141,378.45,296.613z"/>
	</g>
</g>
<g>
</g>
<g>
</g>
<g>
</g>
<g>
</g>
<g>
</g>
<g>
</g>
<g>
</g>
<g>
</g>
<g>
</g>
<g>
</g>
<g>
</g>
<g>
</g>
<g>
</g>
<g>
</g>
<g>
</g>
</svg>
